<?xml version="1.0" encoding="UTF-8"?>
<svg id="Layer_4" data-name="Layer 4" xmlns="http://www.w3.org/2000/svg" viewBox="0 0 90.48 82.29">
  <defs>
    <style>
      .cls-1 {
        fill: #c99c28;
      }
    </style>
  </defs>
  <path class="cls-1" d="M45.82,16.64l2.22.29-1.36,1.78c-.46.6-.4,1.45.13,1.98l3.02,3.02c.53.53,1.39.59,1.98.13l1.78-1.36.29,2.22c.1.75.74,1.31,1.5,1.31h4.27c.75,0,1.4-.56,1.5-1.31l.29-2.22,1.78,1.36c.6.46,1.46.4,1.99-.13l3.02-3.02c.53-.53.59-1.39.13-1.98l-1.36-1.78,2.22-.29c.75-.1,1.31-.74,1.31-1.5v-4.27c0-.75-.56-1.39-1.31-1.5l-2.22-.29,1.36-1.78c.46-.6.4-1.45-.13-1.98l-3.02-3.02c-.53-.53-1.39-.59-1.99-.13l-1.78,1.36-.29-2.22c-.1-.75-.74-1.31-1.5-1.31h-4.27c-.75,0-1.39.56-1.5,1.31l-.29,2.22-1.78-1.36c-.6-.46-1.45-.4-1.98.13l-3.02,3.02c-.53.53-.59,1.39-.13,1.98l1.36,1.78-2.22.29c-.75.1-1.31.74-1.31,1.5v4.27c0,.75.56,1.39,1.31,1.5ZM57.51,7.22c3.19,0,5.79,2.6,5.79,5.79s-2.6,5.79-5.79,5.79-5.79-2.6-5.79-5.79,2.6-5.79,5.79-5.79ZM39.05,31.67l-.29-2.22c-.1-.75-.74-1.31-1.49-1.31h-4.27c-.75,0-1.39.56-1.5,1.31l-.29,2.22-1.78-1.36c-.6-.46-1.45-.4-1.98.13l-3.02,3.02c-.53.53-.59,1.39-.13,1.98l1.36,1.78-2.22.29c-.75.1-1.31.74-1.31,1.5v4.27c0,.75.56,1.39,1.31,1.5l2.22.29-1.36,1.78c-.46.6-.4,1.45.13,1.98l3.02,3.02c.53.53,1.39.59,1.98.13l1.78-1.36.29,2.22c.1.75.74,1.31,1.5,1.31h4.27c.75,0,1.39-.56,1.5-1.31l.29-2.22,1.78,1.36c.6.46,1.45.4,1.99-.13l3.02-3.02c.53-.53.59-1.39.13-1.98l-1.36-1.78,2.22-.29c.75-.1,1.31-.74,1.31-1.5v-4.27c0-.75-.56-1.39-1.31-1.5l-2.22-.29,1.36-1.78c.46-.6.4-1.45-.13-1.98l-3.02-3.02c-.54-.53-1.39-.59-1.99-.13l-1.78,1.36ZM35.13,46.94c-3.19,0-5.79-2.6-5.79-5.79s2.6-5.79,5.79-5.79,5.79,2.6,5.79,5.79-2.6,5.79-5.79,5.79ZM89.17,65.65l-2.22-.29,1.36-1.78c.46-.6.4-1.45-.13-1.98l-3.02-3.02c-.54-.53-1.39-.59-1.99-.13l-1.78,1.36-.29-2.22c-.1-.75-.74-1.31-1.5-1.31h-4.27c-.75,0-1.39.56-1.5,1.31l-.29,2.22-1.78-1.36c-.6-.46-1.45-.4-1.98.13l-3.02,3.02c-.53.53-.59,1.39-.13,1.98l1.36,1.78-2.22.29c-.75.1-1.31.74-1.31,1.5v4.27c0,.75.56,1.39,1.31,1.5l2.22.29-1.36,1.78c-.46.6-.4,1.45.13,1.98l3.02,3.02c.53.53,1.39.59,1.98.13l1.78-1.36.29,2.22c.1.75.74,1.31,1.5,1.31h4.27c.75,0,1.39-.56,1.5-1.31l.29-2.22,1.78,1.36c.6.46,1.45.4,1.99-.13l3.02-3.02c.53-.53.59-1.39.13-1.98l-1.36-1.78,2.22-.29c.75-.1,1.31-.74,1.31-1.5v-4.27c0-.75-.56-1.39-1.31-1.5ZM77.47,75.08c-3.19,0-5.79-2.6-5.79-5.79s2.6-5.79,5.79-5.79,5.79,2.6,5.79,5.79-2.6,5.79-5.79,5.79ZM0,13.01c0-1.82,1.48-3.29,3.29-3.29h25.13l-1.77-1.4c-.69-.55-1.13-1.33-1.23-2.2-.1-.87.14-1.73.69-2.43,1.13-1.43,3.2-1.67,4.63-.54l9.2,7.28s.03.02.04.03c.07.06.13.11.2.18.01.01.03.02.04.03.09.08.16.17.24.26.02.03.04.05.06.08.05.07.1.14.15.2.02.03.03.06.05.08.05.08.09.15.12.22.02.03.03.07.05.1.03.07.06.15.09.23,0,0,0,.02,0,.02.01.03.02.06.03.08.03.08.05.16.07.25.01.04.02.07.02.1.02.09.03.18.05.26,0,.02,0,.06.01.09.02.13.02.25.02.36s0,.23-.02.36c0,.03,0,.06-.02.09-.01.08-.03.17-.05.26l-.02.09c-.02.09-.05.17-.07.25-.01.03-.02.06-.03.09,0,0,0,.02,0,.02-.03.08-.06.15-.09.23-.02.03-.03.07-.05.1-.04.07-.08.14-.12.21-.03.04-.04.07-.06.1-.05.07-.09.14-.14.2-.02.03-.04.06-.06.08-.08.09-.15.18-.23.26-.01.01-.03.03-.04.04-.06.06-.13.12-.2.17-.02.01-.03.03-.05.04l-9.21,7.28c-.58.46-1.3.71-2.04.71-1.01,0-1.96-.46-2.59-1.25-.55-.69-.79-1.55-.69-2.42.1-.87.54-1.65,1.23-2.2l1.77-1.4H3.29C1.48,16.3,0,14.82,0,13.01h0ZM63.93,51.72c-.74,0-1.46-.25-2.04-.71l-9.19-7.28s-.04-.03-.05-.05c-.06-.05-.13-.11-.2-.17l-.05-.05c-.08-.08-.15-.15-.23-.25-.03-.04-.06-.07-.08-.1-.05-.06-.09-.12-.14-.19-.02-.02-.03-.05-.05-.07,0,0-.02-.03-.03-.04l-.1-.18-.02-.05-.03-.07c-.03-.06-.06-.14-.09-.21-.02-.04-.03-.09-.05-.13-.02-.07-.05-.15-.06-.23,0,0,0,0,0,0,0-.03-.01-.05-.02-.07,0-.01,0-.02,0-.04-.02-.08-.03-.16-.04-.25h0s-.01-.08-.01-.11c-.02-.12-.02-.24-.02-.35s0-.23.02-.35c0-.03,0-.06.01-.09h0c.01-.09.03-.18.04-.26,0-.01,0-.02,0-.04,0-.02.01-.05.02-.07h0s0,0,0-.01c.02-.08.04-.15.06-.23.02-.05.03-.09.05-.13.03-.07.06-.14.09-.21l.03-.07.02-.05c.03-.06.07-.12.1-.18,0,0,.01-.02.02-.03.02-.04.04-.06.05-.08.04-.06.09-.13.14-.19l.07-.09c.09-.11.16-.19.23-.26.02-.02.03-.03.05-.04.07-.06.13-.12.2-.17l.06-.05,9.19-7.27c.69-.55,1.55-.79,2.43-.69s1.66.54,2.2,1.23c1.13,1.43.89,3.5-.54,4.63l-1.77,1.4h8.9c5.94,0,10.77-4.83,10.77-10.77,0-5.29-3.94-9.87-9.16-10.65-.54-.08-.93-.56-.91-1.11,0-.06,0-.11,0-.17v-4.27c0-.31.13-.59.35-.8s.53-.3.83-.27c4.22.46,8.13,2.46,10.99,5.64,2.89,3.2,4.47,7.32,4.47,11.63,0,9.58-7.79,17.36-17.36,17.36h-8.9l1.77,1.4c1.43,1.13,1.67,3.2.54,4.63-.63.8-1.57,1.25-2.59,1.25h0ZM60.38,68.93c.02.12.02.24.02.35s0,.23-.02.35c0,.03,0,.06-.01.09h0c-.01.09-.03.18-.04.26,0,.01,0,.02,0,.04,0,.03-.02.05-.02.08-.02.07-.04.15-.07.23-.02.05-.03.09-.05.13-.03.07-.06.14-.09.21-.02.03-.03.06-.05.09-.03.07-.07.14-.11.2,0,0-.01.02-.02.03-.02.04-.04.06-.05.09-.04.06-.08.11-.12.17v.02s-.06.06-.08.09c0,0,0,.01-.01.02-.08.09-.15.18-.23.25-.02.02-.04.04-.06.06-.06.06-.12.11-.18.16-.02.02-.04.03-.06.05l-9.19,7.27c-.58.46-1.31.71-2.04.71-1.01,0-1.96-.46-2.59-1.25-1.13-1.43-.89-3.5.54-4.63l1.77-1.4h-30.27C7.79,72.58,0,64.8,0,55.22s7.79-17.36,17.36-17.36h.26c.29,0,.58.12.78.34.2.21.31.51.29.8v4.33c.02.29-.09.58-.29.8-.2.21-.48.33-.78.33h-.26c-5.94,0-10.77,4.83-10.77,10.77s4.83,10.77,10.77,10.77h30.27l-1.77-1.4c-1.43-1.13-1.67-3.2-.54-4.63.55-.69,1.33-1.13,2.2-1.23.87-.1,1.73.14,2.42.69l9.19,7.27s.04.03.06.05c.06.05.12.1.18.15.02.02.04.04.06.06.08.08.15.15.23.25,0,0,0,.01.01.02.03.03.05.06.07.09v.02c.05.06.09.11.13.17.02.02.03.05.05.07,0,0,.02.03.03.04.04.06.08.13.11.2l.05.09c.03.07.06.14.09.21.02.04.03.09.05.13.03.08.05.15.07.23,0,.02.01.04.02.07,0,.01,0,.02,0,.04.02.08.03.16.04.25h0s.01.07.01.11h0Z"/>
</svg>