<?xml version="1.0" encoding="UTF-8"?>
<svg id="Layer_4" data-name="Layer 4" xmlns="http://www.w3.org/2000/svg" viewBox="0 0 83.52 72.05">
  <defs>
    <style>
      .cls-1 {
        fill: #c99c28;
      }
    </style>
  </defs>
  <path class="cls-1" d="M40.88,20h29.1l-5.27,5.27c-1.58,1.58-1.58,4.04,0,5.63.79.79,1.76,1.14,2.81,1.14s2.02-.35,2.81-1.14l12.04-12.04c.7-.7,1.14-1.76,1.14-2.81s-.44-2.02-1.14-2.81l-12.04-12.04c-1.58-1.58-4.04-1.58-5.63,0s-1.58,4.04,0,5.63l5.27,5.27h-29.1c-2.2,0-3.96,1.76-3.96,3.96s1.76,3.96,3.96,3.96Z"/>
  <path class="cls-1" d="M5.71,30.46h17.76c3.08,0,5.54-2.46,5.54-5.54V7.08c0-3.08-2.46-5.54-5.54-5.54H5.71C2.64,1.54.18,4,.18,7.08v17.76c0,3.08,2.55,5.63,5.54,5.63Z"/>
  <path class="cls-1" d="M42.64,52H13.54l5.27-5.27c1.58-1.58,1.58-4.04,0-5.63-1.58-1.58-4.04-1.58-5.63,0L1.14,53.23c-.7.7-1.14,1.76-1.14,2.81s.44,2.02,1.14,2.81l12.04,12.04c.79.79,1.76,1.14,2.81,1.14s2.02-.35,2.81-1.14c1.58-1.58,1.58-4.04,0-5.63l-5.27-5.27h29.1c2.2,0,3.96-1.76,3.96-3.96s-1.76-4.04-3.96-4.04Z"/>
  <path class="cls-1" d="M77.81,41.54h-17.85c-3.08,0-5.54,2.46-5.54,5.54v17.76c0,3.08,2.46,5.54,5.54,5.54h17.85c3.08,0,5.54-2.46,5.54-5.54v-17.76c0-2.99-2.55-5.54-5.54-5.54Z"/>
</svg>