<?xml version="1.0" encoding="UTF-8"?>
<svg id="Layer_4" data-name="Layer 4" xmlns="http://www.w3.org/2000/svg" viewBox="0 0 115.05 85.41">
  <defs>
    <style>
      .cls-1 {
        fill: #c99c28;
      }
    </style>
  </defs>
  <path class="cls-1" d="M57.83,22.13l-10.17,10.17-6.05-6.05,10.17-10.17,6.05,6.05Z"/>
  <path class="cls-1" d="M2.39,73.91c-.65,0-1.24-.24-1.69-.69-.45-.45-.69-1.04-.69-1.69s.24-1.24.69-1.69L40.78,29.78l3.39,3.39L4.08,73.21c-.45.45-1.04.69-1.69.69h0Z"/>
  <path class="cls-1" d="M55.27,15.25l2.12-2.12c.39-.39.97-.62,1.59-.62s1.2.23,1.59.62l.21.21c.43.43.66.99.66,1.59s-.24,1.16-.66,1.59l-2.12,2.12-3.39-3.39Z"/>
  <path class="cls-1" d="M49.29,14.21C40.29,7.42,28.77,2.66,15.02.03c-.74-.14-1.48.29-1.73.99-.27.7.02,1.5.66,1.87,10.02,5.78,19.14,12.29,27.18,19.47l8.15-8.15Z"/>
  <path class="cls-1" d="M72.35,60.71c.16,0,.31-.02.47-.08.72-.23,1.15-.93,1.05-1.67-1.89-13.77-6.61-25.37-13.99-34.53l-8.23,8.23c7.74,8.35,14.24,17.51,19.34,27.23.27.51.8.82,1.36.82h0Z"/>
  <path class="cls-1" d="M92.93,16.08l-6.3,7.86-8.67-8.67c-1.1-1.1-1.48-2.72-.99-4.18l2.19-6.58c.28-.84,1.07-1.41,1.96-1.41h6.15v6.69c0,.41.16.8.45,1.09l5.21,5.21h0Z"/>
  <path class="cls-1" d="M59.39,53.57l-4.12,10.29c-.25.6-.82.97-1.44.97-.1,0-.21,0-.31-.02l-10.29-2.06c-.39-.08-.74-.33-.97-.66l-4.12-6.17c-.45-.68-.31-1.56.31-2.08l10.29-8.23c.56-.43,1.34-.45,1.89-.02l8.23,6.17c.56.41.76,1.15.51,1.81h0Z"/>
  <path class="cls-1" d="M71.84,67.44l-.25,8.42c-.02.41-.19.78-.49,1.07-.29.27-.66.41-1.05.41h-.04l-5.93-.16c-.56-.02-1.07-.33-1.34-.82l-3.17-6.15c-.23-.41-.25-.93-.04-1.36s.6-.74,1.07-.84l9.36-2.1c.45-.12.95,0,1.32.31s.58.76.56,1.23h0Z"/>
  <path class="cls-1" d="M85.98,37.4l-4.12,6.17c-.29.43-.76.68-1.28.68-.16,0-.33-.02-.49-.08l-6.17-2.06c-.56-.19-.97-.68-1.03-1.28l-.88-6.85c-.1-.8.43-1.56,1.23-1.71l7.06-1.38c.49-.08,1.01.06,1.38.43l4.12,4.12c.51.51.6,1.34.19,1.95h0Z"/>
  <path class="cls-1" d="M111.97,82.32V5.16c0-1.14-.93-2.06-2.06-2.06h-19.54v6.05l5.72,5.72c.56.56.6,1.44.12,2.06l-7.66,9.57,5.8,13.54c.12.33.16.66.08.99l-3.72,14.84,10.7,1.79c.08.02.14.06.23.08.1.02.19.06.27.1.1.06.16.12.25.19s.14.12.21.21.12.16.16.27c.04.06.08.12.1.19l4.12,12.35c.27.82-.16,1.69-.97,1.95-.16.06-.33.08-.49.08-.64,0-1.26-.41-1.46-1.05l-3.83-11.48-10.56-1.75-9.2,11.05,3.58,12.49H18.85c-.84,0-1.54.7-1.54,1.54s.7,1.54,1.54,1.54h94.66c.85,0,1.54-.69,1.54-1.54s-.69-1.54-1.54-1.54h-1.54Z"/>
</svg>